HIERARCHY
ROOT Hips
{
	OFFSET 0.00000 0.00000 0.00000
	CHANNELS 6 Xposition Yposition Zposition Zrotation Yrotation Xrotation 
	JOINT LHipJoint
	{
		OFFSET 0 0 0
		CHANNELS 3 Zrotation Yrotation Xrotation
		JOINT LeftHip
		{
			OFFSET 1.54859 -1.61379 0.86856
			CHANNELS 3 Zrotation Yrotation Xrotation
			JOINT LeftKnee
			{
				OFFSET 2.25087 -6.18423 0.00000
				CHANNELS 3 Zrotation Yrotation Xrotation
				JOINT LeftAnkle
				{
					OFFSET 2.40328 -6.60297 0.00000
					CHANNELS 3 Zrotation Yrotation Xrotation
					JOINT LeftToe
					{
						OFFSET 0.17435 -0.47901 2.02453
						CHANNELS 3 Zrotation Yrotation Xrotation
						End Site
						{
							OFFSET 0.00000 -0.00000 1.04844
						}
					}
				}
			}
		}
	}
	JOINT RHipJoint
	{
		OFFSET 0 0 0
		CHANNELS 3 Zrotation Yrotation Xrotation
		JOINT RightHip
		{
			OFFSET -1.54669 -1.61379 0.86856
			CHANNELS 3 Zrotation Yrotation Xrotation
			JOINT RightKnee
			{
				OFFSET -2.28132 -6.26789 0.00000
				CHANNELS 3 Zrotation Yrotation Xrotation
				JOINT RightAnkle
				{
					OFFSET -2.51636 -6.91365 0.00000
					CHANNELS 3 Zrotation Yrotation Xrotation
					JOINT RightToe
					{
						OFFSET -0.15124 -0.41552 2.21090
						CHANNELS 3 Zrotation Yrotation Xrotation
						End Site
						{
							OFFSET -0.00000 -0.00000 1.13399
						}
					}
				}
			}
		}
	}
	JOINT lowerback
	{
		OFFSET 0 0 0
		CHANNELS 3 Zrotation Yrotation Xrotation
		JOINT Chest
		{
			OFFSET -0.04287 2.26161 -0.25690
			CHANNELS 3 Zrotation Yrotation Xrotation
			JOINT Chest2
			{
				OFFSET 0.02248 2.28395 -0.10140
				CHANNELS 3 Zrotation Yrotation Xrotation
				JOINT lowerneck
				{
					OFFSET 0 0 0
					CHANNELS 3 Zrotation Yrotation Xrotation
					JOINT Neck
					{
						OFFSET -0.11644 1.38496 0.11345
						CHANNELS 3 Zrotation Yrotation Xrotation
						JOINT Head
						{
							OFFSET 0.29383 1.36600 0.06642
							CHANNELS 3 Zrotation Yrotation Xrotation
							End Site
							{
								OFFSET 0.11075 1.41395 -0.00294
							}
						}
					}
				}
				JOINT LeftCollar
				{
					OFFSET 0 0 0
					CHANNELS 3 Zrotation Yrotation Xrotation
					JOINT LeftShoulder
					{
						OFFSET 3.51628 0.59542 -0.30346
CHANNELS 3 Zrotation Xrotation Yrotation
						JOINT LeftElbow
						{
OFFSET 0 -4.764050 0.000000
CHANNELS 3 Zrotation Xrotation Yrotation
							JOINT LeftWrist
							{
OFFSET 0 -3.137590 -0.000000
CHANNELS 3 Zrotation Xrotation Yrotation
								JOINT lhand
								{
									OFFSET 0 0 0
CHANNELS 3 Zrotation Xrotation Yrotation
									JOINT LFingers
									{
OFFSET 0 -0.732260 -0.000000
CHANNELS 3 Zrotation Xrotation Yrotation
										End Site
										{
OFFSET 0 -0.590370 -0.000000
										}
									}
								}
								JOINT LThumb
								{
OFFSET 0 0.000000 0.000000
CHANNELS 3 Zrotation Xrotation Yrotation
									End Site
									{
OFFSET 0 -0.599380 0.599380
									}
								}
							}
						}
					}
				}
				JOINT RightCollar
				{
					OFFSET 0 0 0
					CHANNELS 3 Zrotation Yrotation Xrotation
					JOINT RightShoulder
					{
						OFFSET -3.30990 0.84213 -0.36430
CHANNELS 3 Zrotation Xrotation Yrotation
						JOINT RightElbow
						{
OFFSET 0 -5.101610 -0.000000
CHANNELS 3 Zrotation Xrotation Yrotation
							JOINT RightWrist
							{
OFFSET 0 -3.232670 -0.000000
CHANNELS 3 Zrotation Xrotation Yrotation
								JOINT rhand
								{
									OFFSET 0 0 0
CHANNELS 3 Zrotation Xrotation Yrotation
									JOINT RFingers
									{
OFFSET 0 -0.702000 -0.000000
CHANNELS 3 Zrotation Xrotation Yrotation
										End Site
										{
OFFSET 0 -0.565970 -0.000000
										}
									}
								}
								JOINT RThumb
								{
OFFSET 0 0.000000 0.000000
CHANNELS 3 Zrotation Xrotation Yrotation
									End Site
									{
OFFSET 0 -0.574610 0.574610
									}
								}
							}
						}
					}
				}
			}
		}
	}
}
MOTION
Frames: 11
Frame Time: 0.008333333333333333
-27.467576 13.332532 -13.954193 -0.248337 52.669808 13.178721 0.000000 0.000000 0.000000 7.745928 12.551387 -57.585852 9.391086 17.052952 57.433161 0.000454 -1.632308 -1.324241 1.958210 -8.746343 -25.026658 0.000000 0.000000 0.000000 3.581864 -4.509536 33.205396 0.000000 0.000000 0.000000 -0.545222 -12.568318 -23.583350 -3.220648 11.039209 -32.417486 -3.882217 9.325692 14.413822 1.440473 12.010164 8.637067 1.860907 5.933741 0.147592 -6.193275 5.111046 -41.070793 -18.075691 13.700110 2.275331 -2.994937 4.866634 7.949372 0.000000 0.000000 0.000000 31.856828 19.936977 -36.565510 18.434028 -28.705677 4.757811 30.939054 -3.273192 -33.249160 0.000000 0.000000 0.000000 -7.125000 0.000000 0.000000 -1.933640 67.365345 1.028032 0.000000 0.000000 0.000000 -26.281323 -36.773129 -22.763398 -6.883206 -11.719570 -0.716392 -41.070891 17.542317 -27.231626 0.000000 0.000000 0.000000 7.125000 0.000000 0.000000 -6.279648 -4.165683 -6.747029
-27.377813 13.295418 -13.917560 0.079911 53.087138 13.441945 0.000000 0.000000 0.000000 7.369490 12.521190 -57.692063 9.393581 17.054474 57.441690 -0.005976 -2.167588 -0.999385 1.664473 -8.048849 -22.899374 0.000000 0.000000 0.000000 3.514845 -4.907356 33.632250 0.000000 0.000000 0.000000 -0.432561 -13.098708 -23.146009 -3.072192 10.807825 -31.637659 -4.035816 9.617329 14.463804 1.056962 12.382951 8.948828 1.516806 6.119598 0.486815 -6.838583 4.041308 -42.278517 -17.291924 12.721493 2.538892 -2.837952 4.410070 7.991851 0.000000 0.000000 0.000000 33.100199 17.931795 -37.029069 18.771151 -29.132901 4.919181 31.793238 -3.184872 -33.272758 0.000000 0.000000 0.000000 -7.125000 0.000000 0.000000 -0.770230 67.647608 0.418470 0.000000 0.000000 0.000000 -26.107570 -36.420011 -24.421030 -6.333486 -10.817248 -0.600339 -43.158599 20.238430 -26.018248 0.000000 0.000000 0.000000 7.125000 0.000000 0.000000 -7.750076 -3.529312 -8.279685
-27.287288 13.257797 -13.879500 0.406985 53.516363 13.788908 0.000000 0.000000 0.000000 7.040917 12.468249 -57.694805 9.424402 17.073157 57.546583 -0.008060 -2.547346 -1.206941 1.122055 -6.199049 -17.532924 0.000000 0.000000 0.000000 3.494042 -5.318593 33.961883 0.000000 0.000000 0.000000 -0.300869 -13.682513 -22.591782 -2.849353 10.429676 -30.396598 -4.292693 9.851648 14.457041 0.732703 12.680118 9.220147 1.306909 6.265330 0.793524 -7.391238 2.991680 -43.468794 -16.549774 11.796355 2.896787 -2.710720 3.980150 8.094185 0.000000 0.000000 0.000000 34.054732 15.978125 -37.183649 19.041884 -29.468201 5.052701 32.704263 -2.979253 -33.095730 0.000000 0.000000 0.000000 -7.125000 0.000000 0.000000 0.639450 67.739047 -0.355049 0.000000 0.000000 0.000000 -25.677650 -35.713251 -23.466716 -6.228410 -10.642414 -0.580998 -44.597199 21.077649 -24.539979 0.000000 0.000000 0.000000 7.125000 0.000000 0.000000 -8.937027 -2.308286 -9.365508
-27.196763 13.220176 -13.841440 0.734059 53.945589 14.135871 0.000000 0.000000 0.000000 6.712344 12.415309 -57.697547 9.455223 17.091839 57.651477 -0.010144 -2.927105 -1.414497 0.579637 -4.349248 -12.166473 0.000000 0.000000 0.000000 3.473239 -5.729831 34.291517 0.000000 0.000000 0.000000 -0.169176 -14.266318 -22.037555 -2.626514 10.051526 -29.155537 -4.549570 10.085967 14.450277 0.408444 12.977285 9.491465 1.097013 6.411062 1.100234 -7.943893 1.942052 -44.659072 -15.807624 10.871217 3.254682 -2.583488 3.550230 8.196519 0.000000 0.000000 0.000000 35.009265 14.024455 -37.338229 19.312618 -29.803501 5.186222 33.615289 -2.773635 -32.918702 0.000000 0.000000 0.000000 -7.125000 0.000000 0.000000 2.049130 67.830486 -1.128569 0.000000 0.000000 0.000000 -25.247730 -35.006492 -22.512403 -6.123334 -10.467580 -0.561657 -46.035799 21.916869 -23.061711 0.000000 0.000000 0.000000 7.125000 0.000000 0.000000 -10.123978 -1.087261 -10.451331
-27.106906 13.185459 -13.801695 1.050560 54.396136 14.557751 0.000000 0.000000 0.000000 6.419108 12.335703 -57.763063 9.505855 17.122185 57.823297 -0.008640 -3.301634 -1.781980 0.235184 -3.104817 -8.572019 0.000000 0.000000 0.000000 3.578128 -6.042013 34.133369 -0.011271 -0.260971 0.718149 -0.078326 -14.765083 -21.788365 -2.402644 9.646187 -27.848449 -4.790412 10.278892 14.354015 0.059987 13.236094 9.774302 0.881278 6.538159 1.480073 -8.519961 0.840980 -46.136319 -14.905634 9.965658 3.928523 -2.429154 3.117390 8.388468 0.000000 0.000000 0.000000 35.933718 12.010393 -37.370326 19.542597 -30.086819 5.300382 34.473504 -2.658560 -32.587470 0.000000 0.000000 0.000000 -7.125000 0.000000 0.000000 3.445694 67.736596 -1.873781 0.000000 0.000000 0.000000 -24.696591 -34.349943 -21.387720 -6.108090 -10.442185 -0.558874 -47.318728 23.076086 -21.446843 0.000000 0.000000 0.000000 7.125000 0.000000 0.000000 -11.260094 0.426282 -11.361934
-27.018063 13.155150 -13.759394 1.351018 54.879033 15.093295 0.000000 0.000000 0.000000 6.179488 12.215636 -57.923821 9.586545 17.170226 58.096664 -0.001694 -3.668231 -2.392109 0.191091 -2.778876 -7.666112 0.000000 0.000000 0.000000 3.873723 -6.203905 33.235140 -0.039642 -0.917898 2.525905 -0.049443 -15.134824 -22.001990 -2.177209 9.199595 -26.441182 -5.006926 10.409012 14.121963 -0.325182 13.436704 10.074613 0.656684 6.636983 1.970867 -9.131552 -0.338147 -48.048968 -13.761131 9.089804 5.081728 -2.233699 2.680122 8.716383 0.000000 0.000000 0.000000 36.812534 9.904702 -37.216587 19.710741 -30.291268 5.385166 35.251594 -2.680862 -32.022275 0.000000 0.000000 0.000000 -7.125000 0.000000 0.000000 4.822360 67.361518 -2.576043 0.000000 0.000000 0.000000 -23.961533 -33.769574 -20.004547 -6.229143 -10.643526 -0.581213 -48.365468 24.720816 -19.624719 0.000000 0.000000 0.000000 7.125000 0.000000 0.000000 -12.319081 2.383645 -12.006686
-26.929220 13.124841 -13.717093 1.651475 55.361929 15.628840 0.000000 0.000000 0.000000 5.939868 12.095570 -58.084580 9.667235 17.218267 58.370030 0.005253 -4.034827 -3.002238 0.146999 -2.452935 -6.760206 0.000000 0.000000 0.000000 4.169319 -6.365797 32.336911 -0.068013 -1.574825 4.333660 -0.020560 -15.504565 -22.215616 -1.951774 8.753003 -25.033915 -5.223440 10.539132 13.889910 -0.710351 13.637314 10.374925 0.432090 6.735807 2.461661 -9.743144 -1.517274 -49.961617 -12.616627 8.213951 6.234933 -2.038244 2.242853 9.044298 0.000000 0.000000 0.000000 37.691349 7.799012 -37.062848 19.878884 -30.495717 5.469951 36.029684 -2.703164 -31.457079 0.000000 0.000000 0.000000 -7.125000 0.000000 0.000000 6.199025 66.986439 -3.278306 0.000000 0.000000 0.000000 -23.226476 -33.189206 -18.621374 -6.350196 -10.844867 -0.603552 -49.412207 26.365546 -17.802595 0.000000 0.000000 0.000000 7.125000 0.000000 0.000000 -13.378069 4.341008 -12.651439
-26.852940 13.099592 -13.675180 1.946075 56.078230 16.206456 0.000000 0.000000 0.000000 5.823340 11.795767 -58.444223 9.776707 17.281583 58.738360 0.001403 -4.631221 -3.343475 0.348317 -3.334876 -9.265938 0.000000 0.000000 0.000000 4.642206 -6.708902 31.209611 -0.149834 -2.315193 6.386899 -0.026050 -15.798634 -22.665599 -1.728688 8.247976 -23.486054 -5.616447 10.412610 13.664902 -0.756114 13.445383 10.301504 0.642327 6.623595 2.440961 -10.342268 -2.097688 -48.311211 -11.923972 7.260683 5.447486 -1.814322 1.990961 8.524991 0.000000 0.000000 0.000000 37.781717 6.866853 -36.720537 20.110160 -30.773053 5.588456 36.579066 -2.302546 -31.412335 0.000000 0.000000 0.000000 -7.125000 0.000000 0.000000 7.052529 67.108209 -3.768370 0.000000 0.000000 0.000000 -22.654791 -31.851062 -15.512313 -6.587951 -11.237782 -0.650630 -50.195429 28.047144 -15.757258 0.000000 0.000000 0.000000 7.125000 0.000000 0.000000 -14.351291 6.866291 -12.862619
-26.783072 13.076924 -13.633464 2.237685 56.913648 16.805544 0.000000 0.000000 0.000000 5.769632 11.404236 -58.905366 9.900868 17.352694 59.155155 -0.007957 -5.344890 -3.547485 0.674879 -4.833253 -13.512783 0.000000 0.000000 0.000000 5.205573 -7.144489 29.965406 -0.258932 -3.098146 8.565419 -0.049084 -16.054086 -23.236205 -1.506799 7.713126 -21.866441 -6.099527 10.155111 13.443489 -0.628663 13.053121 10.037352 1.074477 6.403681 2.159222 -10.935031 -2.372553 -44.842420 -11.461915 6.267907 3.669637 -1.575871 1.833676 7.573310 0.000000 0.000000 0.000000 37.469706 6.533600 -36.281988 20.373655 -31.087587 5.724171 37.011728 -1.686092 -31.633199 0.000000 0.000000 0.000000 -7.125000 0.000000 0.000000 7.639039 67.483544 -4.150139 0.000000 0.000000 0.000000 -22.166483 -30.126190 -11.522455 -6.885265 -11.728467 -0.710334 -50.844166 29.747556 -13.598006 0.000000 0.000000 0.000000 7.125000 0.000000 0.000000 -15.280743 9.681410 -12.852528
-26.713205 13.054256 -13.591748 2.529295 57.749065 17.404631 0.000000 0.000000 0.000000 5.715924 11.012705 -59.366509 10.025029 17.423805 59.571949 -0.017316 -6.058560 -3.751495 1.001442 -6.331630 -17.759628 0.000000 0.000000 0.000000 5.768941 -7.580076 28.721201 -0.368029 -3.881098 10.743939 -0.072117 -16.309537 -23.806812 -1.284911 7.178276 -20.246828 -6.582607 9.897613 13.222076 -0.501212 12.660858 9.773199 1.506627 6.183767 1.877484 -11.527793 -2.647419 -41.373628 -10.999858 5.275132 1.891788 -1.337421 1.676391 6.621629 0.000000 0.000000 0.000000 37.157695 6.200347 -35.843440 20.637149 -31.402120 5.859885 37.444390 -1.069638 -31.854064 0.000000 0.000000 0.000000 -7.125000 0.000000 0.000000 8.225550 67.858878 -4.531908 0.000000 0.000000 0.000000 -21.678175 -28.401318 -7.532596 -7.182578 -12.219151 -0.770038 -51.492904 31.447969 -11.438754 0.000000 0.000000 0.000000 7.125000 0.000000 0.000000 -16.210195 12.496529 -12.842437
-26.624934 13.028572 -13.553827 2.487565 58.290081 17.630388 0.000000 0.000000 0.000000 5.839392 10.934418 -59.832973 10.204871 17.521350 60.168123 -0.048772 -6.974314 -3.729087 1.361724 -7.275603 -20.585846 0.000000 0.000000 0.000000 6.207729 -7.929617 27.657052 -0.516304 -4.526492 12.576613 -0.094947 -16.353177 -24.072512 -1.111214 6.659117 -18.723123 -6.804633 9.903607 13.158793 -0.568965 12.653483 9.748105 1.558636 6.172783 1.856798 -11.767186 -2.990029 -40.210631 -10.676376 4.602513 1.052518 -1.266251 1.504161 6.177448 0.000000 0.000000 0.000000 37.316854 4.848028 -35.553939 20.819444 -31.616035 5.955473 37.548185 -0.683330 -32.172294 0.000000 0.000000 0.000000 -7.125000 0.000000 0.000000 8.289310 68.240076 -4.638018 0.000000 0.000000 0.000000 -21.365349 -27.515829 -7.305965 -7.519069 -12.767855 -0.845297 -51.626719 31.246417 -11.250262 0.000000 0.000000 0.000000 7.125000 0.000000 0.000000 -16.339203 12.719958 -12.887926
